<?xml version="1.0" encoding="us-ascii" standalone="no"?><svg xmlns="http://www.w3.org/2000/svg" xmlns:xlink="http://www.w3.org/1999/xlink" contentStyleType="text/css" height="745px" preserveAspectRatio="none" style="width:1163px;height:745px;background:#FFFFFF;" version="1.1" viewBox="0 0 1163 745" width="1163px" zoomAndPan="magnify"><defs/><g><line style="stroke:#181818;stroke-width:0.5;stroke-dasharray:5.0,5.0;" x1="47" x2="47" y1="66.4883" y2="679.5938"/><line style="stroke:#181818;stroke-width:0.5;stroke-dasharray:5.0,5.0;" x1="235.5" x2="235.5" y1="66.4883" y2="679.5938"/><line style="stroke:#181818;stroke-width:0.5;stroke-dasharray:5.0,5.0;" x1="461.5" x2="461.5" y1="66.4883" y2="679.5938"/><line style="stroke:#181818;stroke-width:0.5;stroke-dasharray:5.0,5.0;" x1="712" x2="712" y1="66.4883" y2="679.5938"/><line style="stroke:#181818;stroke-width:0.5;stroke-dasharray:5.0,5.0;" x1="939.5" x2="939.5" y1="66.4883" y2="679.5938"/><line style="stroke:#181818;stroke-width:0.5;stroke-dasharray:5.0,5.0;" x1="1071.5" x2="1071.5" y1="66.4883" y2="679.5938"/><rect fill="#E2E2F0" height="60.4883" rx="2.5" ry="2.5" style="stroke:#181818;stroke-width:0.5;" width="84" x="5" y="5"/><text fill="#000000" font-family="sans-serif" font-size="14" lengthAdjust="spacing" textLength="40" x="27" y="40.5352">Client</text><rect fill="#E2E2F0" height="60.4883" rx="2.5" ry="2.5" style="stroke:#181818;stroke-width:0.5;" width="84" x="5" y="678.5938"/><text fill="#000000" font-family="sans-serif" font-size="14" lengthAdjust="spacing" textLength="40" x="27" y="714.1289">Client</text><rect fill="#E2E2F0" height="60.4883" rx="2.5" ry="2.5" style="stroke:#181818;stroke-width:0.5;" width="109" x="181.5" y="5"/><text fill="#000000" font-family="sans-serif" font-size="14" lengthAdjust="spacing" textLength="65" x="203.5" y="40.5352">TickerApi</text><rect fill="#E2E2F0" height="60.4883" rx="2.5" ry="2.5" style="stroke:#181818;stroke-width:0.5;" width="109" x="181.5" y="678.5938"/><text fill="#000000" font-family="sans-serif" font-size="14" lengthAdjust="spacing" textLength="65" x="203.5" y="714.1289">TickerApi</text><rect fill="#E2E2F0" height="60.4883" rx="2.5" ry="2.5" style="stroke:#181818;stroke-width:0.5;" width="61" x="431.5" y="5"/><text fill="#000000" font-family="sans-serif" font-size="14" lengthAdjust="spacing" textLength="17" x="453.5" y="40.5352">S3</text><rect fill="#E2E2F0" height="60.4883" rx="2.5" ry="2.5" style="stroke:#181818;stroke-width:0.5;" width="61" x="431.5" y="678.5938"/><text fill="#000000" font-family="sans-serif" font-size="14" lengthAdjust="spacing" textLength="17" x="453.5" y="714.1289">S3</text><rect fill="#E2E2F0" height="60.4883" rx="2.5" ry="2.5" style="stroke:#181818;stroke-width:0.5;" width="70" x="677" y="5"/><text fill="#000000" font-family="sans-serif" font-size="14" lengthAdjust="spacing" textLength="26" x="699" y="40.5352">SNS</text><rect fill="#E2E2F0" height="60.4883" rx="2.5" ry="2.5" style="stroke:#181818;stroke-width:0.5;" width="70" x="677" y="678.5938"/><text fill="#000000" font-family="sans-serif" font-size="14" lengthAdjust="spacing" textLength="26" x="699" y="714.1289">SNS</text><rect fill="#E2E2F0" height="60.4883" rx="2.5" ry="2.5" style="stroke:#181818;stroke-width:0.5;" width="71" x="904.5" y="5"/><text fill="#000000" font-family="sans-serif" font-size="14" lengthAdjust="spacing" textLength="27" x="926.5" y="40.5352">SQS</text><rect fill="#E2E2F0" height="60.4883" rx="2.5" ry="2.5" style="stroke:#181818;stroke-width:0.5;" width="71" x="904.5" y="678.5938"/><text fill="#000000" font-family="sans-serif" font-size="14" lengthAdjust="spacing" textLength="27" x="926.5" y="714.1289">SQS</text><rect fill="#E2E2F0" height="60.4883" rx="2.5" ry="2.5" style="stroke:#181818;stroke-width:0.5;" width="172" x="985.5" y="5"/><text fill="#000000" font-family="sans-serif" font-size="14" lengthAdjust="spacing" textLength="128" x="1007.5" y="40.5352">TickerApiDatabase</text><rect fill="#E2E2F0" height="60.4883" rx="2.5" ry="2.5" style="stroke:#181818;stroke-width:0.5;" width="172" x="985.5" y="678.5938"/><text fill="#000000" font-family="sans-serif" font-size="14" lengthAdjust="spacing" textLength="128" x="1007.5" y="714.1289">TickerApiDatabase</text><polygon fill="#181818" points="224,123.7988,234,127.7988,224,131.7988,228,127.7988" style="stroke:#181818;stroke-width:1.0;"/><line style="stroke:#181818;stroke-width:1.0;" x1="47" x2="230" y1="127.7988" y2="127.7988"/><text fill="#000000" font-family="sans-serif" font-size="13" lengthAdjust="spacing" textLength="115" x="84" y="108.0566">Get presigned URL</text><polygon fill="#181818" points="58,183.1094,48,187.1094,58,191.1094,54,187.1094" style="stroke:#181818;stroke-width:1.0;"/><line style="stroke:#181818;stroke-width:1.0;" x1="52" x2="235" y1="187.1094" y2="187.1094"/><text fill="#000000" font-family="sans-serif" font-size="13" lengthAdjust="spacing" textLength="135" x="74" y="167.3672">Return presigned URL</text><polygon fill="#181818" points="450,242.4199,460,246.4199,450,250.4199,454,246.4199" style="stroke:#181818;stroke-width:1.0;"/><line style="stroke:#181818;stroke-width:1.0;" x1="47" x2="456" y1="246.4199" y2="246.4199"/><text fill="#000000" font-family="sans-serif" font-size="13" lengthAdjust="spacing" textLength="104" x="202.5" y="226.6777">Upload file to S3</text><polygon fill="#181818" points="58,301.7305,48,305.7305,58,309.7305,54,305.7305" style="stroke:#181818;stroke-width:1.0;"/><line style="stroke:#181818;stroke-width:1.0;" x1="52" x2="461" y1="305.7305" y2="305.7305"/><text fill="#000000" font-family="sans-serif" font-size="13" lengthAdjust="spacing" textLength="98" x="205.5" y="285.9883">Confirm upload</text><polygon fill="#181818" points="700,361.041,710,365.041,700,369.041,704,365.041" style="stroke:#181818;stroke-width:1.0;"/><line style="stroke:#181818;stroke-width:1.0;" x1="462" x2="706" y1="365.041" y2="365.041"/><text fill="#000000" font-family="sans-serif" font-size="13" lengthAdjust="spacing" textLength="196" x="489" y="345.2988">Publish s3:ObjectCreated event</text><polygon fill="#181818" points="928,420.3516,938,424.3516,928,428.3516,932,424.3516" style="stroke:#181818;stroke-width:1.0;"/><line style="stroke:#181818;stroke-width:1.0;" x1="712" x2="934" y1="424.3516" y2="424.3516"/><text fill="#000000" font-family="sans-serif" font-size="13" lengthAdjust="spacing" textLength="174" x="739" y="404.6094">Publish event on SQS queue</text><polygon fill="#181818" points="247,479.6621,237,483.6621,247,487.6621,243,483.6621" style="stroke:#181818;stroke-width:1.0;"/><line style="stroke:#181818;stroke-width:1.0;" x1="241" x2="939" y1="483.6621" y2="483.6621"/><text fill="#000000" font-family="sans-serif" font-size="13" lengthAdjust="spacing" textLength="197" x="489.5" y="463.9199">Consume event from the queue</text><polygon fill="#181818" points="450,538.9727,460,542.9727,450,546.9727,454,542.9727" style="stroke:#181818;stroke-width:1.0;"/><line style="stroke:#181818;stroke-width:1.0;" x1="236" x2="456" y1="542.9727" y2="542.9727"/><text fill="#000000" font-family="sans-serif" font-size="13" lengthAdjust="spacing" textLength="98" x="300" y="523.2305">Get file from S3</text><polygon fill="#181818" points="247,598.2832,237,602.2832,247,606.2832,243,602.2832" style="stroke:#181818;stroke-width:1.0;"/><line style="stroke:#181818;stroke-width:1.0;" x1="241" x2="461" y1="602.2832" y2="602.2832"/><text fill="#000000" font-family="sans-serif" font-size="13" lengthAdjust="spacing" textLength="172" x="263" y="582.541">Read file content by stream</text><polygon fill="#181818" points="1059.5,657.5938,1069.5,661.5938,1059.5,665.5938,1063.5,661.5938" style="stroke:#181818;stroke-width:1.0;"/><line style="stroke:#181818;stroke-width:1.0;" x1="236" x2="1065.5" y1="661.5938" y2="661.5938"/><text fill="#000000" font-family="sans-serif" font-size="13" lengthAdjust="spacing" textLength="183" x="562.25" y="641.8516">Send file content to database</text><!--SRC=[NP1DReCm48NtFiLSe8ieweP5fOXAtVGNcWCO_21Ei4tyKwctxs1HGjXOzhnltlXDk6WxIYyDrRWcs1Pl247sE0owjmOsKii7l0WBEKgbjErfzoZAGK_8mnDzw_O2VnWr5VI2IAD7O0SeEbQlugOoEZSLL24cRpVepRBUCtCS1oSLTNe0HSSrmUMrIUbifxsXbC5PhTzhbZvJC-Xmeh0lFfepsbXwoCXpyCEzOe8czclDPecSpMNUI8AORfk4F3GaWvdkl3CKJvZvkx0vnBIGd22JIuQrOuN_bAtZVRDhyqiXyeVDlU7oU9PHDZA0cslOJJElIitw7m00]--></g></svg>